<?xml version="1.0" encoding="utf-8"?>
<!-- Generator: Adobe Illustrator 24.3.0, SVG Export Plug-In . SVG Version: 6.00 Build 0)  -->
<svg version="1.1" id="Layer_1" xmlns="http://www.w3.org/2000/svg" xmlns:xlink="http://www.w3.org/1999/xlink" x="0px" y="0px"
	 viewBox="0 0 1200 900" style="enable-background:new 0 0 1200 900;" xml:space="preserve">
<style type="text/css">
	.st0{fill:#999999;}
	.st1{fill:#FFFFFF;}
	.st2{fill:#0071BC;}
</style>
<path class="st0" d="M986.91,517.03c1.54-1.23,3.06-2.5,4.53-3.8C989.97,514.54,988.47,515.81,986.91,517.03z"/>
<path class="st0" d="M1005.91,384.14c0.91,1.16,1.78,2.34,2.6,3.54C1007.67,386.48,1006.8,385.3,1005.91,384.14z"/>
<path class="st0" d="M1016.62,479.23c0.7-1.58,1.37-3.2,1.99-4.83C1018.01,476.03,1017.33,477.65,1016.62,479.23z"/>
<path class="st0" d="M1022.71,420.23c0.41,1.83,0.75,3.68,1.02,5.56C1023.45,423.91,1023.11,422.06,1022.71,420.23z"/>
<path class="st0" d="M1024.57,447.16c0.11-1.71,0.19-3.42,0.22-5.15C1024.77,443.74,1024.69,445.46,1024.57,447.16z"/>
<path class="st0" d="M1024.82,440.28c0,0.57,0,1.16-0.02,1.73c0.01-0.57,0.01-1.16,0.01-1.73c0-1.99-0.06-3.95-0.17-5.89
	C1024.75,436.33,1024.82,438.3,1024.82,440.28z"/>
<polygon class="st0" points="366.46,474.19 324.78,442.21 275.74,474.97 268.85,479.56 219.13,512.78 212.77,517.04 175.18,542.15 
	210.47,514.99 216.4,510.44 262.54,474.93 268.59,470.28 323.55,427.99 "/>
<polygon class="st0" points="449.88,460.56 450.59,544.11 325.2,414.61 406.39,414.61 "/>
<path class="st1" d="M732.42,440.28c0,0.4,0,0.79-0.01,1.19v0.44c0,0.12-0.01,0.24-0.01,0.36c-0.01,0.41-0.02,0.83-0.03,1.26
	c-0.02,0.5-0.04,1.01-0.06,1.51c-0.04,1-0.1,2-0.19,2.99c-0.04,0.5-0.09,1-0.13,1.49c-0.07,0.66-0.14,1.31-0.21,1.97
	c-0.06,0.53-0.12,1.05-0.19,1.57c-0.01,0.05-0.01,0.1-0.02,0.15c0,0.03-0.01,0.05-0.01,0.08c-0.01,0.04-0.01,0.07-0.02,0.11
	c-0.05,0.35-0.09,0.69-0.14,1.03c-0.08,0.59-0.17,1.17-0.27,1.76c-0.04,0.21-0.07,0.42-0.1,0.62c-0.08,0.41-0.15,0.82-0.23,1.23
	c-0.07,0.4-0.15,0.8-0.23,1.2c-0.08,0.4-0.16,0.79-0.24,1.19c0,0.02-0.01,0.04-0.01,0.06c-0.01,0.03-0.01,0.06-0.02,0.09
	c0,0.01-0.01,0.03-0.01,0.04c-0.14,0.62-0.28,1.25-0.42,1.87c-0.02,0.11-0.05,0.21-0.07,0.32c-0.01,0.04-0.02,0.07-0.03,0.11
	c-0.01,0.04-0.02,0.07-0.03,0.11c-0.19,0.77-0.38,1.54-0.58,2.29c-0.11,0.4-0.21,0.8-0.33,1.2c-0.09,0.34-0.19,0.67-0.29,1
	c-0.01,0.06-0.03,0.13-0.05,0.19c-0.14,0.45-0.27,0.89-0.41,1.33c-0.11,0.34-0.22,0.69-0.33,1.03c-0.25,0.78-0.51,1.55-0.78,2.32
	c-0.09,0.24-0.18,0.49-0.27,0.73c-0.01,0.02-0.01,0.04-0.02,0.06c-0.03,0.07-0.05,0.14-0.08,0.21c-0.15,0.42-0.31,0.83-0.46,1.24
	c-0.28,0.74-0.57,1.47-0.87,2.2c-0.33,0.8-0.68,1.6-1.03,2.4c-0.3,0.67-0.61,1.34-0.92,2c-0.31,0.65-0.63,1.3-0.95,1.94
	c-0.12,0.26-0.25,0.52-0.38,0.78c-0.4,0.77-0.81,1.54-1.22,2.3c-0.64,1.13-1.28,2.26-1.96,3.38c-0.25,0.41-0.5,0.82-0.76,1.24
	c-0.02,0.03-0.03,0.05-0.05,0.08c-0.01,0.01-0.01,0.03-0.02,0.04c-0.04,0.06-0.08,0.12-0.11,0.18c-0.03,0.05-0.06,0.09-0.09,0.14
	c0,0.01-0.01,0.01-0.01,0.02c-0.35,0.53-0.69,1.08-1.05,1.62v0.01c-0.48,0.73-0.97,1.45-1.47,2.16c-0.5,0.72-1.01,1.43-1.53,2.13
	c-0.35,0.47-0.7,0.94-1.07,1.41c-0.24,0.32-0.49,0.65-0.75,0.97c-0.5,0.65-1.02,1.29-1.55,1.92c-0.15,0.18-0.3,0.36-0.45,0.54
	c-0.15,0.19-0.31,0.38-0.48,0.57c-0.16,0.2-0.32,0.39-0.48,0.58c-0.39,0.44-0.78,0.89-1.18,1.33c-0.24,0.28-0.49,0.55-0.73,0.82
	c-0.59,0.65-1.2,1.3-1.81,1.93c-0.01,0.02-0.02,0.03-0.04,0.04c-0.01,0.01-0.01,0.01-0.02,0.02l-0.03,0.03
	c-0.4,0.42-0.81,0.84-1.23,1.25l-0.07,0.07c-0.05,0.06-0.11,0.11-0.16,0.16c-0.15,0.15-0.29,0.3-0.44,0.45
	c-0.3,0.3-0.6,0.59-0.91,0.88c-0.22,0.21-0.44,0.43-0.66,0.63c-0.22,0.21-0.45,0.42-0.67,0.63c-0.28,0.26-0.55,0.51-0.82,0.75
	c-0.36,0.34-0.74,0.68-1.11,0.99c-0.09,0.09-0.19,0.18-0.29,0.26c-0.19,0.18-0.39,0.35-0.58,0.51c-1.56,1.37-3.17,2.68-4.83,3.95
	c-0.05,0.05-0.11,0.09-0.18,0.14c-0.41,0.31-0.81,0.62-1.23,0.93c-0.48,0.37-0.97,0.72-1.47,1.08c-0.13,0.1-0.27,0.2-0.41,0.29
	c-0.73,0.54-1.48,1.06-2.24,1.57c-0.02,0.01-0.05,0.04-0.07,0.05c-0.03,0.02-0.07,0.04-0.09,0.05c-0.62,0.43-1.25,0.84-1.89,1.26
	c-0.31,0.2-0.61,0.4-0.92,0.6c-0.01,0-0.01,0.01-0.02,0.01c-0.25,0.16-0.51,0.31-0.76,0.47c-0.29,0.18-0.59,0.36-0.88,0.55
	c-0.08,0.05-0.15,0.1-0.23,0.15c-0.4,0.24-0.8,0.48-1.2,0.72c-0.7,0.42-1.42,0.83-2.13,1.24c-0.1,0.05-0.19,0.11-0.29,0.16
	c-0.71,0.41-1.43,0.8-2.16,1.19c-0.01,0-0.01,0.01-0.02,0.01c-0.27,0.14-0.54,0.29-0.81,0.42c-0.18,0.1-0.36,0.2-0.55,0.29
	c-0.08,0.05-0.16,0.09-0.23,0.12c-0.41,0.21-0.82,0.43-1.23,0.64c-0.42,0.21-0.85,0.42-1.27,0.62c-0.43,0.21-0.85,0.41-1.28,0.62
	c-0.19,0.09-0.38,0.18-0.56,0.27c-0.06,0.02-0.11,0.05-0.17,0.08c-0.24,0.11-0.49,0.22-0.74,0.34c-0.04,0.02-0.08,0.04-0.12,0.05
	c-0.55,0.26-1.09,0.5-1.64,0.74c-0.42,0.19-0.84,0.37-1.26,0.55c-0.37,0.16-0.74,0.31-1.1,0.46c-0.74,0.31-1.47,0.61-2.2,0.9
	c-0.14,0.06-0.27,0.11-0.39,0.15c-0.8,0.32-1.61,0.63-2.42,0.93c-0.08,0.04-0.16,0.06-0.24,0.09c-0.86,0.32-1.72,0.63-2.59,0.93
	c-0.28,0.1-0.56,0.19-0.84,0.29c-0.65,0.22-1.31,0.44-1.97,0.65c0,0,0,0-0.01,0c-0.57,0.18-1.14,0.36-1.72,0.54
	c-0.08,0.03-0.16,0.05-0.25,0.08c-0.29,0.09-0.58,0.17-0.88,0.26c-0.21,0.06-0.42,0.13-0.64,0.19c-0.05,0.02-0.1,0.03-0.15,0.05
	c-0.15,0.04-0.3,0.08-0.46,0.13c-0.05,0.01-0.1,0.03-0.15,0.04c-0.03,0.01-0.05,0.02-0.08,0.02c-0.17,0.05-0.35,0.1-0.52,0.14
	c-0.49,0.14-0.98,0.28-1.47,0.41c-0.9,0.25-1.82,0.48-2.73,0.71c-0.03,0-0.07,0.01-0.1,0.02c-0.2,0.05-0.41,0.1-0.61,0.15
	c-0.54,0.13-1.08,0.27-1.63,0.39c-0.08,0.02-0.15,0.04-0.23,0.05c-0.2,0.05-0.41,0.1-0.63,0.14c-0.12,0.03-0.24,0.06-0.37,0.09
	c-0.03,0.01-0.07,0.01-0.1,0.02c-0.27,0.07-0.54,0.13-0.81,0.18c-0.05,0.01-0.1,0.02-0.15,0.03c-0.09,0.02-0.18,0.03-0.27,0.05
	c-0.4,0.08-0.82,0.18-1.23,0.26c-0.03,0.01-0.05,0.01-0.08,0.02c-0.5,0.1-1.01,0.2-1.52,0.3c-0.01,0-0.03,0.01-0.04,0
	c-0.04,0.01-0.07,0.02-0.11,0.02c-0.18,0.04-0.36,0.07-0.54,0.11c-0.18,0.03-0.37,0.06-0.55,0.1c-0.36,0.06-0.72,0.13-1.1,0.19
	c-0.26,0.05-0.53,0.1-0.8,0.14c-0.5,0.09-1,0.18-1.5,0.25c-0.04,0.01-0.09,0.01-0.13,0.02c-0.28,0.04-0.56,0.08-0.84,0.13
	c-0.47,0.08-0.95,0.15-1.43,0.22c-0.09,0.01-0.17,0.03-0.26,0.04c-0.09,0.01-0.18,0.02-0.27,0.03c-0.06,0.01-0.12,0.02-0.17,0.02
	c-0.04,0-0.07,0.01-0.1,0.01c-0.13,0.02-0.26,0.04-0.39,0.06c-0.12,0.01-0.24,0.03-0.36,0.05c-0.36,0.05-0.72,0.09-1.09,0.14
	c-0.05,0-0.09,0.01-0.14,0.02c-0.08,0.01-0.15,0.01-0.23,0.02c-0.04,0.01-0.08,0.01-0.12,0.02c-0.23,0.02-0.46,0.04-0.69,0.07
	c-0.14,0.02-0.28,0.04-0.42,0.05c-0.05,0.01-0.09,0.01-0.14,0.02c-0.22,0.03-0.44,0.06-0.66,0.07c-0.03,0.01-0.06,0.01-0.09,0.01
	c-0.18,0.02-0.36,0.04-0.54,0.06c-0.23,0.02-0.45,0.05-0.68,0.06c-0.27,0.03-0.53,0.05-0.81,0.08c-0.14,0.01-0.29,0.03-0.42,0.04
	c-0.13,0.02-0.27,0.03-0.41,0.04c-0.17,0.02-0.34,0.03-0.51,0.05c-0.35,0.04-0.7,0.07-1.05,0.09c-0.05,0-0.09,0-0.13,0.01
	c-0.1,0.01-0.18,0.01-0.28,0.02c-0.83,0.06-1.66,0.13-2.49,0.18c-0.65,0.04-1.31,0.08-1.97,0.1c-0.41,0.03-0.82,0.05-1.23,0.06h-0.1
	c-2.24,0.1-4.5,0.15-6.78,0.15H472.13V400.02h63.62v91.95h73.41c1.86,0,3.68-0.05,5.48-0.17c0.58-0.03,1.16-0.07,1.74-0.12h0.09
	c0.01,0,0.01,0,0.02,0c0.01,0,0.02-0.01,0.03-0.01c0.55-0.04,1.11-0.09,1.65-0.15c0.29-0.03,0.58-0.05,0.86-0.09
	c0.33-0.04,0.66-0.08,0.98-0.12h0.03c1.34-0.16,2.66-0.36,3.95-0.59c0.62-0.1,1.23-0.22,1.83-0.34c0.21-0.03,0.41-0.07,0.62-0.12
	c0.57-0.12,1.13-0.25,1.7-0.37c0.43-0.1,0.85-0.2,1.28-0.31c0.3-0.07,0.6-0.15,0.9-0.23c0.05-0.01,0.09-0.03,0.14-0.04
	c0.11-0.03,0.21-0.07,0.32-0.09c1.24-0.33,2.45-0.69,3.64-1.09c2.12-0.69,4.15-1.47,6.11-2.35c0.04-0.02,0.08-0.03,0.12-0.05
	c0.23-0.1,0.46-0.2,0.68-0.31c0.21-0.09,0.41-0.19,0.61-0.29c0.39-0.19,0.78-0.38,1.17-0.57c0.52-0.27,1.04-0.54,1.55-0.81
	c0.11-0.06,0.23-0.13,0.35-0.19c0.11-0.07,0.22-0.13,0.34-0.18c0.08-0.05,0.16-0.1,0.25-0.14c0.07-0.05,0.16-0.1,0.23-0.14
	c0.1-0.06,0.2-0.11,0.3-0.18c0.39-0.21,0.77-0.44,1.15-0.67c0.23-0.14,0.45-0.28,0.68-0.43c0.28-0.18,0.55-0.36,0.83-0.54
	c0.34-0.21,0.67-0.43,0.99-0.66c0.39-0.26,0.77-0.53,1.14-0.81c0.01-0.01,0.02-0.01,0.03-0.02c0.02-0.02,0.05-0.04,0.07-0.06
	c0.23-0.17,0.47-0.34,0.69-0.52c2.06-1.55,3.96-3.24,5.68-5.05c0.18-0.17,0.35-0.35,0.5-0.53c0.21-0.22,0.42-0.44,0.62-0.67
	c0.25-0.29,0.5-0.57,0.75-0.86c0.09-0.11,0.17-0.21,0.26-0.31c0.3-0.35,0.59-0.71,0.87-1.08c0.33-0.41,0.65-0.84,0.96-1.27
	c0.02-0.04,0.05-0.08,0.09-0.13c0.43-0.58,0.84-1.18,1.23-1.79c0.2-0.31,0.39-0.61,0.58-0.93c0.05-0.08,0.11-0.17,0.16-0.26
	c0.33-0.53,0.64-1.07,0.93-1.62c0.16-0.27,0.3-0.54,0.44-0.82c0.15-0.27,0.29-0.55,0.42-0.83c0.08-0.16,0.15-0.34,0.24-0.5
	c0.07-0.15,0.14-0.3,0.21-0.44c0.06-0.15,0.13-0.29,0.2-0.44c0.26-0.58,0.51-1.17,0.74-1.77c0.12-0.29,0.24-0.59,0.34-0.89
	c0.17-0.43,0.32-0.87,0.46-1.32c0.13-0.34,0.24-0.7,0.34-1.05c0.14-0.44,0.26-0.87,0.38-1.31c0.12-0.45,0.24-0.89,0.34-1.34
	c0.05-0.19,0.1-0.39,0.14-0.6c0.17-0.73,0.32-1.47,0.44-2.22c0.07-0.37,0.13-0.75,0.18-1.13c0.02-0.18,0.05-0.38,0.08-0.57
	c0.04-0.27,0.07-0.55,0.1-0.82c0.14-1.12,0.23-2.26,0.27-3.42c0.01-0.33,0.03-0.67,0.04-1.01c0.01-0.2,0.01-0.4,0.01-0.6
	c0.01-0.2,0.01-0.4,0.01-0.6c0-15.64-6.53-32.25-18.14-40.43c0,0-0.01-0.01-0.03-0.02c0-0.01-0.01-0.02-0.02-0.02
	c-0.01-0.01-0.03-0.03-0.06-0.05c-0.37-0.26-0.75-0.52-1.13-0.77c-0.13-0.08-0.26-0.16-0.39-0.25v-0.01
	c-0.26-0.16-0.53-0.34-0.8-0.51c-0.82-0.51-1.67-1.01-2.53-1.5h0.8c0.01,0,0.01,0,0.01,0l75.38-0.2c0.04,0.09,0.08,0.19,0.12,0.28
	c0.29,0.75,0.58,1.51,0.86,2.27c0.06,0.15,0.12,0.3,0.17,0.46c0.05,0.15,0.11,0.3,0.16,0.46c0.11,0.3,0.21,0.61,0.32,0.92
	c0.09,0.26,0.19,0.53,0.27,0.8c0.01,0.04,0.03,0.07,0.03,0.1c0.02,0.06,3.14,6.6,3.16,6.66c0.06,0.18,0.12,0.35,0.18,0.53
	c0.08,0.24,0.16,0.48,0.23,0.73c0.05,0.14,0.09,0.29,0.13,0.43c0.04,0.11,0.07,0.21,0.1,0.32c0.19,0.61,0.36,1.23,0.53,1.85
	c0.01,0.06,0.03,0.13,0.05,0.19c0.02,0.08,0.05,0.17,0.07,0.25c0.14,0.5,0.27,0.99,0.38,1.49c0.01,0.04,0.02,0.07,0.03,0.11
	c0.02,0.05,0.03,0.1,0.04,0.15c0.09,0.31,0.16,0.62,0.23,0.93c0,0.02,0.01,0.03,0.01,0.05c0.15,0.6,0.29,1.2,0.42,1.81
	c0.08,0.36,0.16,0.71,0.23,1.07c0,0.04,0.01,0.09,0.02,0.13c0,0.03,0,0.05,0.01,0.07s0.01,0.04,0.02,0.05
	c0.01,0.04,0.01,0.08,0.02,0.12c0.01,0.02,0.01,0.04,0.01,0.06s0.01,0.04,0.02,0.06c0.02,0.09,0.03,0.18,0.05,0.27
	c0,0.03,0.01,0.06,0.01,0.09c0.14,0.79,0.29,1.56,0.42,2.36c0.13,0.78,0.25,1.54,0.36,2.31c0.09,0.63,0.18,1.27,0.25,1.9
	c0,0.02,0.01,0.05,0.01,0.07c0.03,0.12,0.04,0.24,0.05,0.36v0.03c-0.01,0.01-0.01,0.02,0,0.04c0.08,0.7,0.15,1.4,0.22,2.1
	c0.01,0.14,0.03,0.28,0.04,0.42c0.07,0.74,0.12,1.48,0.17,2.22c0.04,0.54,0.07,1.06,0.1,1.61c0.01,0.27,0.02,0.53,0.03,0.8
	c0.01,0.15,0.01,0.3,0.02,0.45c0.01,0.12,0.01,0.25,0.01,0.37c0.01,0.53,0.02,1.08,0.04,1.61
	C732.42,439.18,732.42,439.73,732.42,440.28z"/>
<path class="st0" d="M732.41,438.63c-0.02-0.53-0.03-1.08-0.04-1.61c0-0.12,0-0.25-0.01-0.37c-0.01-0.15-0.01-0.3-0.02-0.45
	c-0.01-0.27-0.02-0.53-0.03-0.8c-0.03-0.55-0.06-1.07-0.1-1.61c-0.05-0.74-0.1-1.48-0.17-2.22c-0.01-0.14-0.03-0.28-0.04-0.42
	c-0.07-0.7-0.14-1.4-0.22-2.1c-0.01-0.02-0.01-0.03,0-0.04v-0.03c-0.01-0.12-0.02-0.24-0.05-0.36c0-0.02-0.01-0.05-0.01-0.07
	c-0.07-0.63-0.16-1.27-0.25-1.9c-0.11-0.77-0.23-1.53-0.36-2.31c-0.13-0.8-0.28-1.57-0.42-2.36c0-0.03-0.01-0.06-0.01-0.09
	c-0.02-0.09-0.03-0.18-0.05-0.27c-0.01-0.02-0.02-0.04-0.02-0.06s0-0.04-0.01-0.06c-0.01-0.04-0.01-0.08-0.02-0.12
	c-0.01-0.01-0.01-0.03-0.02-0.05s-0.01-0.04-0.01-0.07c-0.01-0.04-0.02-0.09-0.02-0.13c-0.07-0.36-0.15-0.71-0.23-1.07
	c-0.13-0.61-0.27-1.21-0.42-1.81c0-0.02-0.01-0.03-0.01-0.05c-0.07-0.31-0.14-0.62-0.23-0.93c-0.01-0.05-0.02-0.1-0.04-0.15
	c-0.01-0.04-0.02-0.07-0.03-0.11c-0.11-0.5-0.24-0.99-0.38-1.49c-0.02-0.08-0.05-0.17-0.07-0.25c-0.02-0.06-0.04-0.13-0.05-0.19
	c-0.17-0.62-0.34-1.24-0.53-1.85c-0.03-0.11-0.06-0.21-0.1-0.32c-0.04-0.14-0.08-0.29-0.13-0.43c-0.07-0.25-0.15-0.49-0.23-0.73
	c-0.06-0.18-0.12-0.35-0.18-0.53c-0.02-0.06-3.14-6.6-3.16-6.66c0-0.03-0.02-0.06-0.03-0.1c-0.08-0.27-0.18-0.54-0.27-0.8
	c-0.11-0.31-0.21-0.62-0.32-0.92c-0.05-0.16-0.11-0.31-0.16-0.46c-0.05-0.16-0.11-0.31-0.17-0.46c-0.28-0.76-0.57-1.52-0.86-2.27
	c-0.04-0.09-0.08-0.19-0.12-0.28l-75.38,0.2c0,0,0,0-0.01,0h-0.8c0.86,0.49,1.71,0.99,2.53,1.5c0.27,0.17,0.54,0.35,0.8,0.51v0.01
	c0.13,0.09,0.26,0.17,0.39,0.25c0.38,0.25,0.76,0.51,1.13,0.77c0.03,0.02,0.05,0.04,0.06,0.05c0.01,0,0.02,0.01,0.02,0.02
	c0.02,0.01,0.03,0.02,0.03,0.02c11.61,8.18,18.14,24.79,18.14,40.43c0,0.2,0,0.4-0.01,0.6c0,0.2,0,0.4-0.01,0.6
	c-0.01,0.34-0.03,0.68-0.04,1.01c-0.02,0.33-0.04,0.67-0.06,1c-0.03,0.46-0.07,0.91-0.11,1.36c-0.01,0.07-0.01,0.14-0.02,0.21
	c0,0.01,0,0.01,0,0.02c-0.03,0.28-0.06,0.55-0.08,0.83c-0.03,0.27-0.06,0.55-0.1,0.82c-0.03,0.19-0.06,0.39-0.08,0.57
	c-0.05,0.38-0.11,0.76-0.18,1.13c-0.12,0.75-0.27,1.49-0.44,2.22c-0.04,0.21-0.09,0.41-0.14,0.6c-0.1,0.45-0.22,0.89-0.34,1.34
	c-0.12,0.44-0.24,0.87-0.38,1.31c-0.1,0.35-0.21,0.71-0.34,1.05c-0.15,0.45-0.3,0.89-0.46,1.32c-0.11,0.3-0.22,0.6-0.34,0.89
	c-0.23,0.6-0.48,1.19-0.74,1.77c-0.07,0.15-0.14,0.29-0.2,0.44c-0.07,0.14-0.14,0.29-0.21,0.44c-0.09,0.16-0.16,0.34-0.24,0.5
	c-0.13,0.28-0.27,0.56-0.42,0.83c-0.14,0.28-0.29,0.55-0.44,0.82c-0.3,0.55-0.61,1.09-0.93,1.62c-0.05,0.09-0.11,0.18-0.16,0.26
	c-0.19,0.32-0.38,0.62-0.58,0.93c-0.39,0.61-0.8,1.21-1.23,1.79c-0.04,0.05-0.07,0.09-0.09,0.13c-0.31,0.43-0.63,0.86-0.96,1.27
	c-0.28,0.37-0.57,0.73-0.87,1.08c-0.09,0.1-0.17,0.2-0.26,0.31c-0.25,0.29-0.5,0.57-0.75,0.86c-0.2,0.23-0.41,0.45-0.62,0.67
	c-0.16,0.18-0.33,0.35-0.5,0.53c-0.23,0.24-0.47,0.48-0.71,0.72c-0.15,0.14-0.3,0.29-0.44,0.42c-0.58,0.56-1.17,1.11-1.78,1.65
	c-0.08,0.07-0.17,0.15-0.25,0.22c-0.59,0.51-1.2,1.01-1.82,1.5c-0.22,0.18-0.45,0.36-0.68,0.54c-0.22,0.18-0.46,0.35-0.69,0.52
	c-0.02,0.02-0.05,0.04-0.07,0.06c-0.01,0.01-0.02,0.01-0.03,0.02c-0.37,0.28-0.75,0.55-1.14,0.81c-0.33,0.22-0.66,0.44-0.99,0.66
	c-0.28,0.18-0.55,0.36-0.83,0.54c-0.23,0.15-0.45,0.29-0.68,0.43c-0.38,0.22-0.77,0.45-1.15,0.67c-0.1,0.07-0.2,0.12-0.3,0.18
	c-0.07,0.04-0.16,0.09-0.23,0.14c-0.09,0.04-0.17,0.09-0.25,0.14c-0.12,0.05-0.23,0.11-0.34,0.18c-0.12,0.06-0.24,0.13-0.35,0.19
	c-0.51,0.27-1.03,0.54-1.55,0.81c-0.39,0.19-0.78,0.38-1.17,0.57c-0.2,0.1-0.4,0.2-0.61,0.29c-0.22,0.11-0.45,0.21-0.68,0.31
	c-0.04,0.02-0.08,0.03-0.12,0.05c-0.72,0.32-1.47,0.61-2.21,0.91c-0.54,0.22-1.08,0.43-1.64,0.64c-0.34,0.12-0.68,0.24-1.03,0.36
	c-0.41,0.14-0.81,0.29-1.22,0.43c0,0,0,0-0.01,0.01c-0.42,0.13-0.83,0.26-1.25,0.39c-0.03,0.01-0.06,0.02-0.09,0.03
	c-0.66,0.2-1.31,0.39-1.97,0.57c-0.11,0.04-0.22,0.06-0.33,0.1c-0.11,0.02-0.21,0.06-0.32,0.09c-0.05,0.01-0.09,0.03-0.14,0.04
	c-0.3,0.08-0.6,0.16-0.9,0.23c-0.43,0.11-0.85,0.21-1.28,0.31c-0.57,0.12-1.13,0.25-1.7,0.37c-0.21,0.05-0.41,0.09-0.62,0.12
	c-0.61,0.12-1.22,0.23-1.83,0.34c-0.62,0.11-1.24,0.21-1.87,0.3c-0.69,0.1-1.38,0.2-2.08,0.29h-0.03c-0.32,0.04-0.65,0.08-0.98,0.12
	c-0.28,0.04-0.57,0.06-0.86,0.09c-0.28,0.03-0.56,0.05-0.85,0.07c-0.22,0.02-0.43,0.04-0.64,0.06c-0.06,0.01-0.11,0.01-0.16,0.02
	c-0.01,0-0.02,0.01-0.03,0.01c-0.01,0-0.01,0-0.02,0h-0.09c-0.58,0.05-1.16,0.09-1.74,0.12c-0.41,0.03-0.84,0.04-1.26,0.06
	c-0.08,0-0.16,0.01-0.24,0.01c-0.66,0.04-1.3,0.05-1.98,0.07c-0.66,0.02-1.33,0.02-2,0.02h-73.42v-91.93h-63.62v144.54H609.2
	c2.28,0,4.54-0.05,6.78-0.15h0.1c0.41-0.01,0.82-0.03,1.23-0.06c0.41-0.02,0.82-0.05,1.24-0.07c0.06,0,0.11-0.01,0.17-0.01
	c0.15,0,0.31-0.01,0.46-0.02h0.1c0.83-0.05,1.66-0.12,2.49-0.18c0.1-0.01,0.18-0.01,0.28-0.02c0.04-0.01,0.08-0.01,0.13-0.01
	c0.05,0,0.09-0.01,0.14-0.02c0.31-0.02,0.61-0.04,0.91-0.07c0.17-0.02,0.34-0.03,0.51-0.05c0.14-0.01,0.28-0.02,0.41-0.04
	c0.13-0.01,0.28-0.03,0.42-0.04c0.28-0.03,0.54-0.05,0.81-0.08c0.27-0.02,0.54-0.05,0.81-0.08c0.14-0.01,0.27-0.02,0.41-0.04
	c0.03,0,0.06,0,0.09-0.01c0.22-0.01,0.44-0.04,0.66-0.07c0.05-0.01,0.09-0.01,0.14-0.02c0.14-0.01,0.28-0.03,0.42-0.05
	c0.23-0.03,0.46-0.05,0.69-0.07c0.04-0.01,0.08-0.01,0.12-0.02c0.08-0.01,0.15-0.01,0.23-0.02c0.05-0.01,0.09-0.02,0.14-0.02
	c0.37-0.05,0.73-0.09,1.09-0.14c0.12-0.02,0.24-0.04,0.36-0.05c0.13-0.02,0.26-0.04,0.39-0.06c0.03,0,0.06-0.01,0.1-0.01
	c0.05,0,0.11-0.01,0.17-0.02c0.09-0.01,0.18-0.02,0.27-0.03c0.09-0.01,0.17-0.03,0.26-0.04c0.48-0.07,0.96-0.14,1.43-0.22
	c0.28-0.05,0.56-0.09,0.84-0.13c0.04-0.01,0.09-0.01,0.13-0.02c0.24-0.04,0.47-0.08,0.71-0.12c0.26-0.04,0.53-0.08,0.79-0.13
	c0.27-0.04,0.54-0.09,0.8-0.14c0.38-0.06,0.74-0.13,1.1-0.19c0.18-0.04,0.37-0.07,0.55-0.1c0.18-0.04,0.36-0.07,0.54-0.11
	c0.04,0,0.07-0.01,0.11-0.02c0.01,0.01,0.03,0,0.04,0c0.51-0.1,1.02-0.2,1.52-0.3c0.03-0.01,0.05-0.01,0.08-0.02
	c0.41-0.08,0.83-0.18,1.23-0.26c0.09-0.02,0.18-0.03,0.27-0.05c0.05-0.01,0.1-0.02,0.15-0.03c0.27-0.05,0.54-0.11,0.81-0.18
	c0.03-0.01,0.07-0.01,0.1-0.02c0.13-0.03,0.25-0.06,0.37-0.09c0.22-0.04,0.43-0.09,0.63-0.14c0.08-0.01,0.15-0.03,0.23-0.05
	c0.08-0.02,0.15-0.04,0.23-0.06c0.47-0.1,0.94-0.21,1.4-0.33c0.2-0.05,0.41-0.1,0.61-0.15c0.03-0.01,0.07-0.02,0.1-0.02
	c0.17-0.05,0.34-0.09,0.51-0.14c0.33-0.08,0.66-0.17,1-0.26c0.41-0.1,0.82-0.2,1.22-0.31c0.49-0.13,0.98-0.27,1.47-0.41
	c0.17-0.04,0.35-0.09,0.52-0.14c0.03,0,0.05-0.01,0.08-0.02c0.05-0.01,0.1-0.03,0.15-0.04c0.16-0.05,0.31-0.09,0.46-0.13
	c0.05-0.02,0.1-0.03,0.15-0.05c0.22-0.06,0.43-0.13,0.64-0.19c0.3-0.09,0.59-0.17,0.88-0.26c0.09-0.03,0.17-0.05,0.25-0.08
	c0.58-0.18,1.15-0.36,1.72-0.54c0.01,0,0.01,0,0.01,0c0.66-0.21,1.32-0.43,1.97-0.65c0.28-0.1,0.56-0.19,0.84-0.29
	c0.87-0.3,1.73-0.61,2.59-0.93c0.08-0.03,0.16-0.05,0.24-0.09c0.81-0.3,1.62-0.61,2.42-0.93c0.12-0.04,0.25-0.09,0.39-0.15
	c0.73-0.29,1.46-0.59,2.2-0.9c0.36-0.15,0.73-0.3,1.1-0.46c0.42-0.18,0.84-0.36,1.26-0.55c0.55-0.24,1.09-0.48,1.64-0.74
	c0.04-0.01,0.08-0.03,0.12-0.05c0.25-0.12,0.5-0.23,0.74-0.34c0.06-0.03,0.11-0.06,0.17-0.08c0.18-0.09,0.37-0.18,0.56-0.27
	c0.43-0.21,0.85-0.41,1.28-0.62c0.42-0.2,0.85-0.41,1.27-0.62c0.41-0.21,0.82-0.43,1.23-0.64c0.07-0.03,0.15-0.07,0.23-0.12
	c0.08-0.04,0.16-0.09,0.23-0.13c0.11-0.05,0.21-0.1,0.32-0.16c0.27-0.13,0.54-0.28,0.81-0.42c0.01,0,0.01-0.01,0.02-0.01
	c0.73-0.39,1.45-0.78,2.16-1.19c0.1-0.05,0.19-0.11,0.29-0.16c0.71-0.41,1.43-0.82,2.13-1.24c0.4-0.24,0.8-0.48,1.2-0.72
	c0.08-0.05,0.15-0.1,0.23-0.15c0.29-0.19,0.59-0.37,0.88-0.55c0.25-0.16,0.51-0.31,0.76-0.47c0.01,0,0.01-0.01,0.02-0.01
	c0.31-0.2,0.61-0.4,0.92-0.6c0.64-0.42,1.27-0.83,1.89-1.26c0.02-0.01,0.06-0.03,0.09-0.05c0.02-0.01,0.05-0.04,0.07-0.05
	c0.76-0.51,1.51-1.03,2.24-1.57c0.14-0.09,0.28-0.19,0.41-0.29c0.5-0.36,0.99-0.71,1.47-1.08c0.42-0.31,0.82-0.62,1.23-0.93
	c0.07-0.05,0.13-0.09,0.18-0.14c0.06-0.05,0.12-0.1,0.18-0.15c1.42-1.09,2.82-2.23,4.17-3.4c0.16-0.13,0.32-0.26,0.48-0.4
	c0.19-0.16,0.39-0.33,0.58-0.51c0.1-0.08,0.2-0.17,0.29-0.26c0.31-0.27,0.62-0.54,0.92-0.83c0.06-0.05,0.12-0.1,0.19-0.16
	c0.27-0.24,0.54-0.49,0.82-0.75c0.22-0.21,0.45-0.42,0.67-0.63c0.22-0.2,0.44-0.42,0.66-0.63c0.31-0.29,0.61-0.58,0.91-0.88
	c0.15-0.15,0.29-0.3,0.44-0.45c0.05-0.05,0.11-0.1,0.16-0.16l0.07-0.07c0.42-0.41,0.83-0.83,1.23-1.25l0.03-0.03
	c0.01-0.01,0.01-0.01,0.02-0.02c0.02-0.01,0.03-0.02,0.04-0.04c0.61-0.63,1.22-1.28,1.81-1.93c0.24-0.27,0.49-0.54,0.73-0.82
	c0.25-0.27,0.49-0.54,0.72-0.82c0.15-0.17,0.3-0.34,0.46-0.51c0.16-0.19,0.32-0.38,0.48-0.58c0.17-0.19,0.33-0.38,0.48-0.57
	c0.15-0.18,0.3-0.36,0.45-0.54c0.53-0.63,1.05-1.27,1.55-1.92c0.26-0.32,0.51-0.65,0.75-0.97c0.37-0.47,0.72-0.94,1.07-1.41
	c0.52-0.7,1.03-1.41,1.53-2.13c0.5-0.71,0.99-1.43,1.47-2.16v-0.01c0.36-0.54,0.7-1.09,1.05-1.62c0-0.01,0.01-0.01,0.01-0.02
	c0.03-0.05,0.06-0.09,0.09-0.14c0.03-0.06,0.07-0.12,0.11-0.18c0.01-0.01,0.01-0.03,0.02-0.04c0.02-0.03,0.03-0.05,0.05-0.08
	c0.26-0.42,0.51-0.83,0.76-1.24c0.68-1.12,1.32-2.25,1.96-3.38c0.41-0.76,0.82-1.53,1.22-2.3c0.13-0.26,0.26-0.52,0.38-0.78
	c0.32-0.64,0.64-1.29,0.95-1.94c0.31-0.66,0.62-1.33,0.92-2c0.35-0.8,0.7-1.6,1.03-2.4c0.3-0.73,0.59-1.46,0.87-2.2
	c0.15-0.41,0.31-0.82,0.46-1.24c0.03-0.07,0.05-0.14,0.08-0.21c0.01-0.02,0.01-0.04,0.02-0.06c0.09-0.24,0.18-0.49,0.27-0.73
	c0.27-0.77,0.53-1.54,0.78-2.32c0.11-0.34,0.22-0.69,0.33-1.03c0.14-0.44,0.27-0.88,0.41-1.33c0.02-0.06,0.04-0.13,0.05-0.19
	c0.1-0.33,0.2-0.66,0.29-1c0.12-0.4,0.22-0.8,0.33-1.2c0.2-0.75,0.39-1.52,0.58-2.29c0.01-0.04,0.02-0.07,0.03-0.11
	c0.01-0.04,0.02-0.07,0.03-0.11c0.02-0.11,0.05-0.21,0.07-0.32c0.14-0.62,0.28-1.25,0.42-1.87c0-0.01,0.01-0.03,0.01-0.04
	c0.01-0.03,0.01-0.06,0.02-0.09c0-0.02,0.01-0.04,0.01-0.06c0.08-0.4,0.16-0.79,0.24-1.19c0.08-0.4,0.16-0.8,0.23-1.2
	c0.08-0.41,0.15-0.82,0.23-1.23c0.03-0.2,0.06-0.41,0.1-0.62c0.03-0.2,0.06-0.42,0.09-0.63c0.07-0.38,0.12-0.75,0.18-1.13
	c0.05-0.34,0.09-0.68,0.14-1.03c0.01-0.04,0.01-0.07,0.02-0.11c0-0.03,0.01-0.05,0.01-0.08c0.01-0.05,0.01-0.1,0.02-0.15
	c0.07-0.52,0.13-1.04,0.19-1.57c0.07-0.66,0.14-1.31,0.21-1.97c0.04-0.49,0.09-0.99,0.13-1.49c0.07-0.99,0.14-1.99,0.19-2.99
	c0.02-0.5,0.04-1.01,0.06-1.51c0.01-0.43,0.02-0.85,0.03-1.26c0-0.12,0.01-0.24,0.01-0.36v-0.44c0.01-0.4,0.01-0.79,0.01-1.19
	C732.42,439.73,732.42,439.18,732.41,438.63z"/>
<rect x="828.14" y="399.03" class="st0" width="0.01" height="92.94"/>
<path class="st2" d="M431.82,544.57H306.65c-31.9,0-62.47-10.31-83.77-25.72l51.02-34.08c8.75,3.86,21.49,7.19,32.75,7.19h76.35
	L431.82,544.57z"/>
<path class="st2" d="M784.45,340.37l30.04,53.53l-59.98,0.15l-25.83,0.07l-8.44,0.02l-96.99,0.26h-0.01l-161.74,0.45l-44.09,0.12
	l-129.3,0.35c-2.58,0.62-5.07,1.37-7.44,2.25c-20.46,7.54-33.96,24.17-33.96,45.45c0,11.28,3.82,21.17,10.52,29.07l-46.26,35.6
	c-17.43-17.95-27.58-41.3-27.58-67.42c0-52.36,39.9-89.79,97.28-98.44c2.44-0.37,4.92-0.67,7.44-0.93c2.05-0.22,4.13-0.4,6.22-0.54
	c4.03-0.29,8.14-0.42,12.32-0.42h143.44l-0.31,0.42h62.38l0.32-0.42h96.67c4.15,0,8.23,0.14,12.22,0.42H784.45z"/>
<path class="st0" d="M1024.8,440.28c0,0.57,0,1.16-0.01,1.73c-0.04,1.73-0.11,3.45-0.22,5.15c-0.09,1.13-0.19,2.27-0.3,3.4
	c-0.05,0.51-0.11,1.02-0.17,1.53c-0.01,0.12-0.02,0.26-0.05,0.4c-0.06,0.51-0.14,1.03-0.2,1.54c-0.07,0.51-0.16,1.02-0.24,1.53
	c-0.09,0.56-0.17,1.11-0.27,1.66c-0.19,1.1-0.4,2.19-0.63,3.27c-0.22,1.08-0.47,2.15-0.75,3.22c-0.1,0.44-0.21,0.87-0.32,1.29
	c-0.02,0.1-0.05,0.19-0.07,0.29c-0.15,0.55-0.3,1.08-0.45,1.62c-0.19,0.63-0.37,1.27-0.57,1.89c-0.19,0.63-0.4,1.26-0.6,1.88
	c-0.21,0.62-0.42,1.24-0.65,1.87c-0.21,0.61-0.44,1.23-0.67,1.84c-0.62,1.63-1.29,3.25-1.99,4.83c-0.71,1.59-1.47,3.16-2.25,4.72
	c-0.42,0.8-0.85,1.61-1.28,2.4c-0.44,0.78-0.88,1.58-1.34,2.37c-0.4,0.68-0.81,1.37-1.23,2.04c-0.35,0.56-0.7,1.11-1.06,1.66
	c-0.25,0.4-0.51,0.8-0.8,1.2c-0.19,0.3-0.39,0.6-0.59,0.88c-0.27,0.4-0.54,0.78-0.82,1.17c-0.37,0.54-0.76,1.07-1.15,1.59
	c-0.46,0.65-0.95,1.28-1.44,1.9c0,0.01-0.01,0.02-0.02,0.04c-0.37,0.47-0.75,0.95-1.13,1.42c-0.16,0.21-0.34,0.44-0.52,0.65
	c-0.17,0.22-0.36,0.44-0.54,0.65c-0.66,0.8-1.33,1.57-2,2.34c-0.07,0.09-0.15,0.16-0.22,0.24c-0.68,0.77-1.38,1.53-2.09,2.29
	c-0.32,0.35-0.66,0.7-1,1.03c-0.46,0.47-0.93,0.95-1.41,1.42c-0.78,0.77-1.58,1.54-2.39,2.29c-0.04,0.04-0.09,0.07-0.12,0.11
	c-0.59,0.54-1.17,1.07-1.77,1.61c-1.47,1.29-2.99,2.56-4.53,3.8c-0.78,0.61-1.57,1.22-2.37,1.82c-0.8,0.6-1.59,1.18-2.41,1.77
	c-0.82,0.57-1.64,1.15-2.48,1.71c-0.41,0.29-0.83,0.56-1.26,0.83c-0.42,0.27-0.85,0.55-1.28,0.82c-0.4,0.26-0.81,0.52-1.22,0.77
	c-0.46,0.29-0.91,0.56-1.37,0.83c-0.87,0.52-1.76,1.03-2.64,1.54c-0.05,0.02-0.1,0.05-0.15,0.09c-0.85,0.46-1.69,0.93-2.56,1.39
	c-0.93,0.5-1.89,1-2.85,1.47c-0.3,0.16-0.61,0.31-0.91,0.44c-0.72,0.37-1.46,0.72-2.2,1.06c-0.14,0.07-0.27,0.14-0.41,0.2
	c-0.6,0.27-1.21,0.55-1.82,0.82c-0.8,0.36-1.61,0.7-2.41,1.03c-0.05,0.02-0.1,0.05-0.15,0.06c-0.51,0.22-1.01,0.42-1.52,0.62
	c-0.06,0.02-0.14,0.05-0.2,0.07c-0.29,0.12-0.57,0.24-0.87,0.35c-0.58,0.24-1.17,0.46-1.76,0.67c-0.02,0.01-0.05,0.01-0.07,0.02
	c-0.19,0.07-0.37,0.15-0.56,0.21c-0.47,0.19-0.96,0.36-1.46,0.52c-0.14,0.05-0.29,0.1-0.42,0.15c-0.35,0.14-0.7,0.26-1.05,0.37
	c-0.35,0.12-0.7,0.24-1.06,0.35c-0.83,0.29-1.68,0.56-2.54,0.83c-0.44,0.14-0.87,0.27-1.32,0.4c-0.46,0.15-0.92,0.29-1.39,0.41
	c-0.62,0.2-1.24,0.37-1.88,0.54c-1.98,0.55-3.98,1.06-6.01,1.52c-0.63,0.15-1.27,0.29-1.92,0.42c-0.11,0.02-0.24,0.05-0.36,0.07
	c-0.62,0.14-1.24,0.27-1.88,0.39c-0.15,0.04-0.3,0.07-0.45,0.1c-0.32,0.06-0.63,0.12-0.96,0.19c-0.29,0.05-0.57,0.1-0.86,0.15
	c-1.46,0.27-2.91,0.51-4.38,0.73c-0.11,0.01-0.21,0.04-0.32,0.05c-0.65,0.1-1.31,0.19-1.95,0.27c-0.36,0.06-0.72,0.1-1.1,0.15
	c-0.02,0-0.04,0-0.06,0.01c-0.86,0.1-1.73,0.21-2.6,0.3c-0.1,0.02-0.21,0.04-0.31,0.04c-0.88,0.11-1.78,0.2-2.68,0.27
	c-0.4,0.04-0.81,0.07-1.22,0.11c-0.1,0.01-0.2,0.01-0.3,0.02c-0.29,0.02-0.59,0.04-0.87,0.06c-0.1,0.01-0.19,0.01-0.29,0.02
	c-0.76,0.06-1.52,0.11-2.28,0.15c-0.25,0.01-0.5,0.04-0.75,0.05c-0.71,0.05-1.43,0.07-2.15,0.1c-0.47,0.02-0.93,0.04-1.41,0.05
	c-0.78,0.04-1.57,0.06-2.35,0.07c-1.11,0.02-2.22,0.04-3.32,0.04H764.53V399.03h63.61v92.94h73.41c35.19,0,60.57-19.57,60.57-48.93
	c0-24.11-18.49-42.85-44.65-48.26l-7.36-1.15l-87.26,0.24l-30.02-53.49h124.63l7.37,1.1c1.9,0.26,3.8,0.55,5.66,0.86
	c1.77,0.3,3.51,0.63,5.23,0.98c0.88,0.19,1.77,0.37,2.65,0.57c0.88,0.2,1.76,0.4,2.61,0.61c0.87,0.21,1.73,0.44,2.59,0.66
	c0.85,0.22,1.69,0.45,2.54,0.68c1.76,0.5,3.47,1.02,5.18,1.58c0.78,0.25,1.56,0.51,2.33,0.77c0.58,0.2,1.17,0.4,1.74,0.61
	c0.46,0.16,0.92,0.32,1.37,0.51c0.24,0.09,0.47,0.17,0.7,0.26c0.35,0.11,0.68,0.25,1.03,0.39c0.45,0.17,0.91,0.35,1.36,0.54
	c0.01,0,0.01,0.01,0.02,0.01c0.54,0.2,1.07,0.42,1.59,0.65c0.07,0.02,0.15,0.06,0.22,0.09c0.15,0.06,0.3,0.12,0.45,0.2
	c0.61,0.25,1.22,0.51,1.82,0.77c0.66,0.29,1.32,0.59,1.97,0.9c0.41,0.19,0.82,0.37,1.22,0.57c0.75,0.35,1.49,0.71,2.23,1.08
	c0.61,0.3,1.22,0.61,1.82,0.92c0.5,0.25,0.98,0.51,1.47,0.77c0.47,0.25,0.93,0.5,1.39,0.76c0.97,0.54,1.93,1.08,2.88,1.66
	c0.44,0.25,0.87,0.51,1.29,0.77c0.56,0.34,1.12,0.68,1.68,1.05c0.7,0.44,1.38,0.88,2.07,1.34c0.5,0.34,1.01,0.67,1.49,1.01
	c0.11,0.07,0.21,0.15,0.32,0.22c0.34,0.24,0.67,0.46,1,0.71c0.55,0.39,1.1,0.78,1.63,1.18c0.51,0.37,1.01,0.75,1.52,1.15
	c0.45,0.34,0.91,0.7,1.36,1.06c0.82,0.65,1.62,1.31,2.41,1.98c0.61,0.51,1.22,1.03,1.82,1.57c0.06,0.05,0.12,0.1,0.17,0.15
	c0.52,0.47,1.05,0.95,1.57,1.43c0.51,0.47,1.01,0.95,1.51,1.42c0.01,0.01,0.01,0.01,0.02,0.02c0.65,0.62,1.28,1.26,1.9,1.89
	c0.52,0.54,1.03,1.07,1.53,1.61c0.51,0.54,1.01,1.08,1.49,1.63s0.97,1.11,1.46,1.67c0.47,0.56,0.95,1.12,1.41,1.69
	s0.91,1.15,1.36,1.72c0.9,1.16,1.77,2.34,2.6,3.54c0.42,0.6,0.83,1.19,1.23,1.8c0.36,0.55,0.72,1.1,1.07,1.64
	c0.05,0.09,0.1,0.16,0.16,0.25c0.37,0.6,0.73,1.2,1.1,1.8c0.37,0.62,0.75,1.26,1.11,1.89c0.35,0.62,0.7,1.27,1.05,1.9
	c0.35,0.65,0.67,1.29,1.01,1.94c0.29,0.57,0.56,1.13,0.83,1.71c0.06,0.14,0.12,0.27,0.2,0.42c0,0.01,0.01,0.02,0.02,0.04
	c0.21,0.47,0.42,0.95,0.63,1.42c0.02,0.05,0.05,0.1,0.07,0.15c0.06,0.16,0.14,0.32,0.21,0.5c0.26,0.57,0.51,1.16,0.75,1.74
	c0.27,0.67,0.55,1.36,0.81,2.04c0.26,0.68,0.52,1.37,0.76,2.07c0.25,0.68,0.49,1.38,0.72,2.09c0.22,0.7,0.45,1.39,0.66,2.1
	c0.21,0.71,0.41,1.42,0.61,2.14c0.2,0.72,0.39,1.43,0.56,2.15c0.22,0.91,0.44,1.82,0.63,2.74c0.4,1.83,0.73,3.68,1.02,5.56
	c0.14,0.95,0.27,1.89,0.39,2.84c0.11,0.95,0.21,1.9,0.3,2.86c0.09,0.96,0.15,1.93,0.21,2.9
	C1024.74,436.33,1024.8,438.29,1024.8,440.28z"/>
<rect x="314.89" y="455.94" class="st0" width="7.81" height="7.81"/>
<rect x="325.13" y="455.94" class="st0" width="7.81" height="7.81"/>
<rect x="314.89" y="466.37" class="st0" width="7.81" height="7.81"/>
<rect x="325.13" y="466.37" class="st0" width="7.81" height="7.81"/>
<g>
	<path class="st2" d="M272,637.16c-2.43,0.34-5.07,0.51-7.94,0.51h-15.74c-3.98,0-6.73-0.58-8.24-1.74
		c-1.51-1.15-2.26-3.56-2.26-7.21V597.2c0-4.02,0.48-6.61,1.43-7.77c0.95-1.15,3.46-1.73,7.52-1.73h16.58
		c3.34,0,6.14,0.19,8.41,0.56c2.27,0.38,4.43,1.23,6.5,2.58l-2.86-15.46h-47.36c-6.92,0-12.05,1.92-15.39,5.76
		c-3.34,3.84-5.01,9.04-5.01,15.6v31.88c0,6.49,1.68,11.68,5.07,15.55c3.38,3.88,8.48,5.82,15.33,5.82h48.79l2.38-14.68
		C276.83,636.21,274.42,636.83,272,637.16z"/>
	<path class="st2" d="M391.29,581.08c-3.3-3.8-8.45-5.7-15.44-5.7H329.8c-6.61,0-11.38,1.47-14.32,4.42
		c-2.94,2.94-4.69,5.68-5.25,8.22c-0.56,2.53-0.83,5.44-0.83,8.72v31.88c0,6.72,1.63,11.96,4.89,15.72
		c3.26,3.77,8.43,5.65,15.51,5.65h46.05c6.6,0,11.37-1.47,14.31-4.42c2.94-2.94,4.69-5.7,5.25-8.28c0.56-2.57,0.84-5.46,0.84-8.67
		v-31.88C396.25,590.11,394.59,584.89,391.29,581.08z M366.06,628.95c0,3.28-0.46,5.55-1.37,6.82c-0.91,1.26-3.08,1.9-6.5,1.9
		h-10.74c-3.42,0-5.59-0.64-6.5-1.9c-0.91-1.27-1.37-3.54-1.37-6.82v-32.53c0-3.28,0.46-5.55,1.37-6.82c0.91-1.27,3.08-1.9,6.5-1.9
		h10.74c3.42,0,5.59,0.63,6.5,1.9c0.91,1.27,1.37,3.54,1.37,6.82V628.95z"/>
	<path class="st2" d="M500.87,575.38c1.19,1.56,2.05,3.26,2.56,5.09c0.52,1.82,0.78,3.82,0.78,5.98v42.49
		c0,3.28-0.46,5.56-1.37,6.83c-0.92,1.26-3.04,1.9-6.38,1.9h-24.58c-3.42,0-5.59-0.64-6.5-1.9c-0.92-1.27-1.37-3.55-1.37-6.83
		v-42.49c0-1.94,0.27-3.9,0.83-5.87c0.56-1.98,1.39-3.71,2.51-5.2h-36.87c1.2,1.64,2.05,3.34,2.57,5.09
		c0.51,1.75,0.77,3.74,0.77,5.98v42.17c0,6.49,1.69,11.68,5.07,15.55c3.38,3.88,8.49,5.82,15.33,5.82h42.83
		c3.02,0,5.89-0.5,8.59-1.51s5.03-2.55,6.98-4.64c1.95-2.09,3.22-4.27,3.82-6.55c0.59-2.27,0.89-5.16,0.89-8.67v-42.17
		c0-1.94,0.28-3.89,0.84-5.87c0.55-1.98,1.39-3.71,2.5-5.2H500.87z"/>
	<path class="st2" d="M626.25,575.38c1.19,1.64,2.05,3.33,2.57,5.09c0.51,1.75,0.77,3.74,0.77,5.98v48.42l-30.66-59.49h-43.18
		c1.19,1.64,2.04,3.34,2.56,5.09c0.52,1.75,0.78,3.74,0.78,5.98v52.46c0,1.94-0.28,3.9-0.84,5.88s-1.39,3.71-2.5,5.2h19.8
		c-1.19-1.64-2.05-3.34-2.57-5.09c-0.51-1.75-0.77-3.74-0.77-5.98v-49.54l31.97,60.61h38.53v-63.54c0-2.16,0.26-4.16,0.78-5.98
		c0.52-1.83,1.37-3.53,2.56-5.09H626.25z"/>
	<path class="st2" d="M752.35,575.38h-74.56l-2.39,14.56c1.59-0.97,3.18-1.58,4.77-1.85c1.59-0.26,3.54-0.39,5.85-0.39h13.95v51.22
		c0,2.16-0.25,4.16-0.77,5.98c-0.52,1.83-1.37,3.53-2.57,5.09h36.75c-1.19-1.64-2.05-3.34-2.57-5.09c-0.51-1.75-0.77-3.75-0.77-5.98
		V587.7h14.07c2.55,0,4.56,0.13,6.03,0.39c1.47,0.27,3,0.88,4.59,1.85L752.35,575.38z"/>
	<path class="st2" d="M872.84,645.17c-0.88-1.49-1.83-3.28-2.87-5.38l-10.85-21.62l1.79,0.11c3.58,0,6.12-0.94,7.63-2.84
		c1.51-1.9,2.27-4.75,2.27-8.55v-15.98c0-6.03-1.85-10.13-5.55-12.29s-8.89-3.24-15.57-3.24H784.2c1.19,1.64,2.05,3.34,2.56,5.09
		c0.52,1.75,0.78,3.74,0.78,5.98v52.46c0,1.94-0.28,3.9-0.84,5.88c-0.55,1.98-1.39,3.71-2.5,5.2h36.86
		c-1.19-1.64-2.05-3.34-2.56-5.1c-0.52-1.75-0.78-3.75-0.78-5.99v-20.73h9.43l13.95,31.82h34.96
		C874.78,648.27,873.71,646.67,872.84,645.17z M840.86,599.39c0,2.6-0.37,4.33-1.13,5.18c-0.76,0.85-2.44,1.28-5.07,1.28h-16.94
		V587.7h16.11c3.18,0,5.14,0.45,5.9,1.34c0.76,0.89,1.13,2.74,1.13,5.56V599.39z"/>
	<path class="st2" d="M971.02,575.38v2.31c0,1.39-0.26,2.78-0.78,4.18c-0.52,1.39-1.21,2.71-2.09,3.95l-13.12,19.47l-12.64-18.81
		c-1.12-1.68-2.09-3.37-2.93-5.05c-0.83-1.69-1.25-3.71-1.25-6.05h-39.96c1.51,1.56,2.82,3.09,3.93,4.58
		c1.12,1.49,2.75,3.92,4.89,7.28l23.15,34.34v17.33c0,1.94-0.28,3.9-0.84,5.88s-1.39,3.71-2.5,5.2h36.62
		c-1.19-1.64-2.05-3.34-2.56-5.09c-0.52-1.75-0.78-3.75-0.78-5.99v-17.33l23.74-36.14c1.75-2.75,3.18-4.86,4.3-6.32
		c1.11-1.45,2.5-2.7,4.17-3.74H971.02z"/>
</g>
<polygon class="st2" points="839.98,678.62 957.52,683.37 839.98,688.13 "/>
<polygon class="st2" points="360.02,678.62 242.48,683.37 360.02,688.13 "/>
<g>
	<path class="st0" d="M396.9,675.92c-1.17-2.09-2.85-3.7-5.06-4.82c-2.2-1.11-4.84-1.67-7.92-1.67h-8.25v27.84h8.25
		c3.08,0,5.72-0.55,7.92-1.65c2.21-1.1,3.89-2.69,5.06-4.78c1.17-2.08,1.76-4.56,1.76-7.43
		C398.66,680.52,398.07,678.02,396.9,675.92z M392.78,691.92c-2.03,2.03-4.99,3.04-8.86,3.04h-5.46v-23.22h5.46
		c3.87,0,6.83,1.03,8.86,3.09c2.03,2.06,3.05,4.92,3.05,8.58C395.83,687.05,394.81,689.89,392.78,691.92z"/>
	<path class="st0" d="M419.13,671.7v-2.31h-14.54v27.88h14.54v-2.31h-11.75v-10.55h10.56v-2.31h-10.56v-10.4H419.13z"/>
	<path class="st0" d="M436.82,669.79h-3.15l-10.16,27.48h2.95l2.43-6.61h12.67l2.43,6.61h2.94L436.82,669.79z M429.73,688.35
		l5.49-15.05l5.5,15.05H429.73z"/>
	<path class="st0" d="M454.98,695v-25.57h-2.79v27.84h12.79V695H454.98z"/>
	<path class="st0" d="M484.3,671.7v-2.31h-14.54v27.88h14.54v-2.31h-11.75v-10.55h10.55v-2.31h-10.55v-10.4H484.3z"/>
	<path class="st0" d="M501.58,685.44c2.26-0.42,3.97-1.34,5.12-2.76c1.16-1.42,1.74-3.14,1.74-5.16c0-2.42-0.81-4.37-2.41-5.86
		c-1.61-1.49-3.97-2.23-7.07-2.23h-8.37v27.84h2.79v-11.63h5.14l6.89,11.63h3.34L501.58,685.44z M493.38,683.37v-11.59h5.58
		c2.28,0,3.95,0.5,5.01,1.49c1.07,1,1.6,2.42,1.6,4.25c0,1.78-0.55,3.2-1.65,4.26c-1.11,1.06-2.75,1.59-4.92,1.59H493.38z"/>
	<path class="st0" d="M531.02,685.88c-0.77-1.01-1.71-1.76-2.83-2.25c-1.11-0.49-2.57-0.99-4.38-1.49c-1.57-0.43-2.81-0.83-3.72-1.2
		c-0.92-0.37-1.68-0.91-2.29-1.63c-0.62-0.72-0.92-1.66-0.92-2.83c0-1.54,0.56-2.75,1.67-3.64c1.12-0.89,2.51-1.34,4.19-1.34
		c1.8,0,3.23,0.45,4.3,1.34c1.06,0.89,1.68,1.9,1.87,3.04h3.03c-0.24-1.99-1.15-3.61-2.73-4.87c-1.58-1.27-3.66-1.9-6.24-1.9
		c-1.75,0-3.3,0.32-4.66,0.96c-1.35,0.64-2.4,1.52-3.14,2.65c-0.75,1.13-1.12,2.41-1.12,3.84c0,1.73,0.39,3.1,1.16,4.1
		c0.77,1.01,1.7,1.76,2.78,2.24c1.09,0.47,2.57,0.96,4.43,1.47c1.59,0.42,2.84,0.82,3.74,1.17c0.9,0.36,1.66,0.91,2.27,1.64
		c0.61,0.73,0.92,1.69,0.92,2.88c0,1.49-0.55,2.72-1.66,3.69c-1.1,0.97-2.59,1.45-4.48,1.45c-2.04,0-3.6-0.51-4.66-1.53
		c-1.06-1.02-1.66-2.21-1.79-3.57h-2.95c0.06,1.41,0.48,2.69,1.28,3.83c0.79,1.14,1.89,2.03,3.28,2.67c1.4,0.63,3.01,0.95,4.84,0.95
		c1.89,0,3.51-0.36,4.86-1.07c1.36-0.72,2.38-1.66,3.07-2.83s1.04-2.4,1.04-3.7C532.18,688.25,531.79,686.89,531.02,685.88z"/>
	<path class="st0" d="M569.06,691.42c0.72-0.98,1.44-2.1,2.15-3.35l3.03-5.22h-2.99l-2.55,4.27c-0.63,1.09-1.14,1.88-1.51,2.39
		l-9.16-9.28c-1.01-1.09-1.75-2.04-2.21-2.83c-0.47-0.8-0.7-1.62-0.7-2.47c0-1.06,0.38-1.93,1.13-2.61
		c0.76-0.68,1.75-1.02,2.97-1.02c1.14,0,2.09,0.35,2.85,1.04c0.76,0.69,1.12,1.63,1.1,2.83h2.78c0.08-1.84-0.5-3.32-1.75-4.46
		c-1.25-1.15-2.87-1.72-4.86-1.72c-2.12,0-3.82,0.55-5.1,1.66c-1.27,1.1-1.91,2.54-1.91,4.32c0,1.03,0.21,2,0.64,2.89
		c0.42,0.89,1.1,1.85,2.03,2.88c-2.15,0.83-3.78,1.97-4.9,3.43c-1.12,1.46-1.67,3.17-1.67,5.14c0,1.67,0.4,3.14,1.19,4.42
		c0.8,1.27,1.91,2.26,3.35,2.97c1.43,0.7,3.08,1.05,4.94,1.05c1.94,0,3.68-0.35,5.22-1.05c1.54-0.71,2.98-1.8,4.34-3.29l3.78,3.86
		h3.63L569.06,691.42z M562.11,694.41c-1.23,0.61-2.64,0.91-4.2,0.91c-1.3,0-2.46-0.26-3.47-0.79c-1.01-0.54-1.8-1.26-2.37-2.17
		c-0.57-0.92-0.85-1.96-0.85-3.13c0-3.11,1.84-5.34,5.53-6.69l8.89,9C564.52,692.84,563.34,693.8,562.11,694.41z"/>
	<path class="st0" d="M612.44,675.92c-1.17-2.09-2.86-3.7-5.06-4.82c-2.21-1.11-4.85-1.67-7.93-1.67h-8.24v27.84h8.24
		c3.08,0,5.72-0.55,7.93-1.65c2.2-1.1,3.89-2.69,5.06-4.78c1.17-2.08,1.75-4.56,1.75-7.43
		C614.19,680.52,613.61,678.02,612.44,675.92z M608.32,691.92c-2.04,2.03-4.99,3.04-8.87,3.04H594v-23.22h5.45
		c3.88,0,6.83,1.03,8.87,3.09c2.03,2.06,3.04,4.92,3.04,8.58C611.36,687.05,610.35,689.89,608.32,691.92z"/>
	<path class="st0" d="M634.67,671.7v-2.31h-14.54v27.88h14.54v-2.31h-11.76v-10.55h10.56v-2.31h-10.56v-10.4H634.67z"/>
	<path class="st0" d="M660.08,669.43l-9.2,24.82l-9.12-24.82h-3.03l10.55,27.84h3.19l10.56-27.84H660.08z"/>
	<path class="st0" d="M682.54,671.7v-2.31h-14.53v27.88h14.53v-2.31h-11.75v-10.55h10.56v-2.31h-10.56v-10.4H682.54z"/>
	<path class="st0" d="M691.63,695v-25.57h-2.79v27.84h12.78V695H691.63z"/>
	<path class="st0" d="M730.9,675.98c-1.19-2.16-2.84-3.85-4.94-5.06c-2.1-1.2-4.45-1.81-7.05-1.81c-2.57,0-4.91,0.61-7.01,1.81
		c-2.1,1.21-3.75,2.9-4.96,5.06c-1.21,2.17-1.81,4.62-1.81,7.35c0,2.74,0.6,5.19,1.81,7.35c1.21,2.17,2.86,3.85,4.96,5.06
		c2.1,1.21,4.44,1.81,7.01,1.81c2.6,0,4.95-0.6,7.05-1.81c2.1-1.21,3.75-2.89,4.94-5.06c1.2-2.16,1.79-4.61,1.79-7.35
		C732.69,680.6,732.1,678.15,730.9,675.98z M728.39,689.57c-0.95,1.79-2.26,3.16-3.9,4.12c-1.65,0.96-3.51,1.43-5.58,1.43
		s-3.93-0.47-5.57-1.43c-1.65-0.96-2.95-2.33-3.91-4.12c-0.95-1.8-1.43-3.87-1.43-6.24c0-2.36,0.48-4.43,1.43-6.21
		c0.96-1.78,2.26-3.15,3.91-4.1c1.64-0.96,3.5-1.44,5.57-1.44s3.93,0.48,5.58,1.44c1.64,0.95,2.95,2.32,3.9,4.1
		c0.96,1.78,1.44,3.85,1.44,6.21C729.83,685.7,729.35,687.77,728.39,689.57z"/>
	<path class="st0" d="M754.02,671.62c-1.58-1.46-3.92-2.19-7.03-2.19h-8.4v27.84h2.79V685.4h5.61c3.14,0,5.49-0.73,7.05-2.19
		c1.57-1.46,2.35-3.38,2.35-5.77C756.39,675.02,755.6,673.08,754.02,671.62z M746.99,683.01h-5.61v-11.23h5.61
		c2.29,0,3.95,0.48,4.98,1.44c1.04,0.95,1.56,2.36,1.56,4.22C753.53,681.16,751.35,683.01,746.99,683.01z"/>
	<path class="st0" d="M776.39,671.7v-2.31h-14.54v27.88h14.54v-2.31h-11.75v-10.55h10.56v-2.31h-10.56v-10.4H776.39z"/>
	<path class="st0" d="M793.68,685.44c2.26-0.42,3.96-1.34,5.12-2.76c1.15-1.42,1.73-3.14,1.73-5.16c0-2.42-0.8-4.37-2.41-5.86
		c-1.61-1.49-3.96-2.23-7.07-2.23h-8.37v27.84h2.79v-11.63h5.14l6.89,11.63h3.35L793.68,685.44z M785.47,683.37v-11.59h5.58
		c2.28,0,3.96,0.5,5.02,1.49c1.06,1,1.59,2.42,1.59,4.25c0,1.78-0.55,3.2-1.65,4.26s-2.74,1.59-4.92,1.59H785.47z"/>
	<path class="st0" d="M823.12,685.88c-0.78-1.01-1.72-1.76-2.83-2.25c-1.12-0.49-2.58-0.99-4.38-1.49c-1.57-0.43-2.81-0.83-3.73-1.2
		c-0.92-0.37-1.68-0.91-2.29-1.63s-0.92-1.66-0.92-2.83c0-1.54,0.56-2.75,1.68-3.64c1.11-0.89,2.51-1.34,4.18-1.34
		c1.81,0,3.24,0.45,4.3,1.34c1.06,0.89,1.69,1.9,1.87,3.04h3.03c-0.24-1.99-1.15-3.61-2.73-4.87c-1.58-1.27-3.66-1.9-6.23-1.9
		c-1.75,0-3.31,0.32-4.66,0.96c-1.36,0.64-2.41,1.52-3.15,2.65c-0.74,1.13-1.11,2.41-1.11,3.84c0,1.73,0.38,3.1,1.15,4.1
		c0.77,1.01,1.7,1.76,2.79,2.24c1.09,0.47,2.56,0.96,4.42,1.47c1.59,0.42,2.84,0.82,3.75,1.17c0.9,0.36,1.65,0.91,2.27,1.64
		c0.61,0.73,0.91,1.69,0.91,2.88c0,1.49-0.55,2.72-1.65,3.69c-1.1,0.97-2.6,1.45-4.48,1.45c-2.05,0-3.6-0.51-4.66-1.53
		c-1.07-1.02-1.66-2.21-1.8-3.57h-2.94c0.05,1.41,0.47,2.69,1.27,3.83c0.8,1.14,1.89,2.03,3.29,2.67c1.39,0.63,3.01,0.95,4.84,0.95
		c1.88,0,3.5-0.36,4.86-1.07c1.35-0.72,2.37-1.66,3.06-2.83c0.69-1.17,1.04-2.4,1.04-3.7C824.27,688.25,823.88,686.89,823.12,685.88
		z"/>
</g>
<path class="st0" d="M2128.76,448.18c1.54-1.23,3.06-2.5,4.53-3.8C2131.82,445.69,2130.31,446.96,2128.76,448.18z"/>
<path class="st0" d="M2147.75,315.29c0.91,1.16,1.78,2.34,2.6,3.54C2149.52,317.63,2148.65,316.45,2147.75,315.29z"/>
<path class="st0" d="M2158.47,410.38c0.7-1.58,1.37-3.2,1.99-4.83C2159.85,407.18,2159.18,408.8,2158.47,410.38z"/>
<path class="st0" d="M2164.56,351.38c0.41,1.83,0.75,3.68,1.02,5.56C2165.29,355.06,2164.96,353.21,2164.56,351.38z"/>
<path class="st0" d="M2166.41,378.31c0.11-1.71,0.19-3.42,0.22-5.15C2166.61,374.89,2166.54,376.61,2166.41,378.31z"/>
<path class="st0" d="M2166.66,371.43c0,0.57,0,1.16-0.02,1.73c0.01-0.57,0.01-1.16,0.01-1.73c0-1.99-0.06-3.95-0.17-5.89
	C2166.6,367.48,2166.66,369.45,2166.66,371.43z"/>
</svg>
